<svg width="540" height="540" viewBox="0 0 540 540" fill="none" xmlns="http://www.w3.org/2000/svg">
<rect width="540" height="540" rx="270" fill="#0F120F"/>
<path d="M399.623 244.798C401.066 247.401 402.981 249.709 405.258 251.599C380.268 270.773 348.69 292.111 311.837 315.272L311.73 315.339L311.621 315.4C260.852 343.432 205.824 369.232 161.545 384.012C139.451 391.386 119.744 396.116 104.468 396.888C96.8355 397.273 90.0037 396.69 84.4367 394.741C78.7731 392.759 74.2368 389.281 71.8027 383.921C69.4145 378.662 69.5568 372.829 71.3063 366.939C73.0465 361.079 76.4503 354.881 81.0242 348.52C90.1742 335.793 104.563 321.651 121.948 307.206C124.134 305.389 126.371 303.565 128.654 301.736C130 302.026 131.262 302.389 132.554 302.762C134.68 303.377 136.865 304.117 138.25 304.804C138.403 304.88 138.554 304.958 138.705 305.037C134.877 308.035 131.169 311.02 127.602 313.984C110.445 328.24 96.7147 341.825 88.2041 353.662C83.9477 359.582 81.1359 364.877 79.779 369.445C78.4315 373.982 78.5953 377.513 79.8517 380.28C81.0624 382.946 83.3965 385.031 87.361 386.418C91.4222 387.84 96.9771 388.435 104.021 388.079C118.097 387.368 136.905 382.936 158.742 375.647C167.181 372.831 174.928 369.976 185.179 366.024C210.738 356.168 224.671 349.591 249.361 337.731C272.308 326.709 288.244 318.224 307.236 307.74C343.884 284.705 375.065 263.621 399.623 244.798Z" fill="#F7F8F4"/>
<path d="M374.346 350.878C374.301 350.927 356.849 369.884 342.886 378.22C312.01 396.653 272.451 400.306 238.253 389.51C224.45 385.152 205.026 373.104 205.026 373.104L265.649 344.528C265.649 344.528 284.431 346.229 295.872 343.293C312.876 338.93 325.965 328.749 337.053 315.422L374.346 350.878Z" fill="#F7F8F4"/>
<path d="M165.611 243.803C179.566 243.804 192.661 253.549 199.369 265.324C205.848 276.696 205.047 290.77 210.327 302.721C214.437 312.021 217.836 317.014 224.997 324.242C230.917 330.217 242.278 337.095 242.318 337.119L188.941 360.051C188.911 360.021 177.689 348.574 171.974 340.118C162.152 325.583 158.255 306.859 141.397 298.487C137.43 296.518 130.616 294.959 130.616 294.959L79.8908 243.803C79.9481 243.803 148.297 243.803 165.611 243.803Z" fill="#F7F8F4"/>
<path d="M163.844 213.462C197.889 143.848 294.992 120.912 355.434 170.773C360.953 175.325 368.655 183.437 368.69 183.474L331.927 219.107C331.881 219.057 324.268 210.9 318.495 206.759C279.656 178.894 223.306 197.947 207.854 242.744C205.465 249.668 203.965 261.09 203.965 261.09C203.965 261.09 196.677 251.215 190.356 246.802C179.812 239.44 167.488 237.292 154.831 237.629C154.831 237.629 159.418 222.512 163.844 213.462Z" fill="#F7F8F4"/>
<path d="M290.501 202.075C294.687 202.925 298.818 204.207 302.829 205.944C286.013 213.921 269.143 222.496 252.908 231.275C239.475 238.54 225.742 246.435 212.168 254.71C212.806 251.332 213.626 247.688 214.539 245.041C214.849 244.144 215.176 243.258 215.522 242.384C226.623 235.766 237.764 229.434 248.698 223.521C262.304 216.163 276.371 208.938 290.501 202.075Z" fill="#F7F8F4"/>
<path d="M420.123 216.284C429.493 216.136 437.14 223.866 437.091 233.219C437.042 242.523 429.444 250.125 420.123 249.977C410.948 249.831 403.734 242.377 403.686 233.219C403.638 224.011 410.899 216.431 420.123 216.284Z" fill="#F7F8F4"/>
<path d="M434.868 152.067C442.025 151.609 448.481 151.987 453.847 153.523C459.255 155.07 463.841 157.887 466.66 162.467C471.975 171.1 470.576 181.193 465.076 191.579C460.282 200.632 452.067 210.569 441.017 221.286C439.54 218.699 437.595 216.407 435.295 214.534C445.783 204.31 453.13 195.263 457.263 187.458C462.041 178.435 462.123 171.946 459.131 167.084C457.797 164.918 455.395 163.141 451.412 162.001C447.387 160.849 442.046 160.446 435.432 160.869C422.21 161.713 404.898 165.78 385.07 172.271C380.819 173.662 376.464 175.161 372.022 176.757C371.236 175.952 370.236 174.938 369.114 173.824C367.9 172.618 366.508 171.26 365.065 169.901C370.961 167.731 376.724 165.72 382.315 163.89C402.408 157.313 420.546 152.981 434.868 152.067Z" fill="#F7F8F4"/>
</svg>
